<?xml version="1.0" encoding="utf-8"?>
<!-- Generator: Adobe Illustrator 16.0.2, SVG Export Plug-In . SVG Version: 6.00 Build 0)  -->
<!DOCTYPE svg PUBLIC "-//W3C//DTD SVG 1.1//EN" "http://www.w3.org/Graphics/SVG/1.1/DTD/svg11.dtd">
<svg version="1.1" id="Layer_1" xmlns:sketch="http://www.bohemiancoding.com/sketch/ns"
	 xmlns="http://www.w3.org/2000/svg" xmlns:xlink="http://www.w3.org/1999/xlink" x="0px" y="0px" width="227px" height="315px"
	 viewBox="0 0 227 315" enable-background="new 0 0 227 315" xml:space="preserve">
<title>Trim</title>
<desc>Created with Sketch.</desc>
<g id="_x35_" transform="translate(0.000000, 11.000000)" sketch:type="MSShapeGroup">
	<path id="path147-0-8-1-6-1-1-0-5-6-4-0" d="M113.49,78.148c-26.293,0.572-38.084,30.174-18.611,53.163
		c2.824,3.352,3.115,5.277-2.057,2.056c-13.11-8.767-38.249-3.004-39.535,23.797c-1.591,33.025,44.553,42.54,53.217,7.424
		c0.457-3.703,3.468-3.619,2.743,1.639c-0.789,14.275-5.247,27.619-11.375,40.628h31.258c-6.126-13.009-10.585-26.353-11.374-40.628
		c-0.725-5.258,2.285-5.342,2.742-1.639c8.664,35.116,54.807,25.602,53.216-7.424c-1.288-26.801-26.428-32.563-39.535-23.797
		c-5.168,3.222-4.881,1.296-2.053-2.056c19.47-22.989,7.679-52.591-18.614-53.163c0,0,0,0-0.026,0H113.49z"/>
</g>
</svg>
