<?xml version="1.0" encoding="utf-8"?>
<!-- Generator: Adobe Illustrator 16.0.2, SVG Export Plug-In . SVG Version: 6.00 Build 0)  -->
<!DOCTYPE svg PUBLIC "-//W3C//DTD SVG 1.1//EN" "http://www.w3.org/Graphics/SVG/1.1/DTD/svg11.dtd">
<svg version="1.1" id="Layer_1" xmlns:sketch="http://www.bohemiancoding.com/sketch/ns"
	 xmlns="http://www.w3.org/2000/svg" xmlns:xlink="http://www.w3.org/1999/xlink" x="0px" y="0px" width="227px" height="315px"
	 viewBox="0 0 227 315" enable-background="new 0 0 227 315" xml:space="preserve">
<title>Trim</title>
<desc>Created with Sketch.</desc>
<g id="_x35_" transform="translate(1.000000, 9.000000)" sketch:type="MSShapeGroup">
	<path id="path6980-6-3" d="M110.141,89.573c-20.444,29.125-42.302,45.877-42.692,68.616c-0.129,7.362,3.833,19.882,16.284,22.292
		c8.081,1.556,19.211-4.979,19.458-18.283c-0.032-2.648,2.806-2.577,2.772,1.054c-0.391,10.491-3.722,22.705-9.307,32.645
		l26.74,0.028c-5.565-9.95-8.868-22.172-9.238-32.665c-0.022-3.63,2.814-3.695,2.775-1.047
		c0.218,13.304,11.336,19.864,19.419,18.326c12.455-2.384,16.444-14.894,16.332-22.257
		C152.346,135.542,130.522,118.743,110.141,89.573L110.141,89.573z"/>
</g>
</svg>
